<svg width="54" height="54" viewBox="0 0 54 54" fill="none" xmlns="http://www.w3.org/2000/svg">
<path d="M45.5316 38.1195C45.5316 41.1528 45.0454 43.586 44.1626 45.5319H9.83676C8.95398 43.586 8.46777 41.1528 8.46777 38.1195C8.46777 33.112 9.79352 28.3858 12.0389 24.3528H41.9594C44.2059 28.3858 45.5316 33.1129 45.5316 38.1195Z" fill="#FF9F87"/>
<path d="M26.9994 42.3511C27.5819 42.3511 28.0541 41.8788 28.0541 41.2964V40.3195C29.4008 39.8803 30.262 38.6867 30.46 37.5083C30.7305 35.8988 29.8581 34.4449 28.2891 33.8903C27.4528 33.5946 26.529 33.2385 26.0181 32.8378C25.7218 32.6053 25.854 31.6997 26.5103 31.4731C27.0597 31.3134 27.656 31.3102 28.0782 31.7034C28.0784 31.7036 28.0851 31.7098 28.0854 31.7099C28.5119 32.1065 29.1758 32.0791 29.5724 31.6527C29.969 31.2264 29.9419 30.5564 29.5158 30.1596C29.0934 29.7662 28.5985 29.501 28.054 29.3654V28.5773C28.054 27.9948 27.5818 27.5226 26.9993 27.5226C26.4168 27.5226 25.9446 27.9948 25.9446 28.5773V29.442C24.8882 29.7438 24.0203 30.6731 23.8072 31.8872C23.6266 32.9158 23.9749 33.916 24.7163 34.4977C25.4652 35.0849 26.5382 35.5087 27.5861 35.8792C28.4146 36.172 28.439 36.8065 28.3798 37.1586C28.2809 37.7462 27.7867 38.3812 26.9347 38.3869C26.0473 38.3922 25.7934 38.3527 25.1225 37.9139C24.635 37.5952 23.9814 37.7316 23.6625 38.2191C23.3436 38.7065 23.4801 39.3602 23.9676 39.6791C24.7185 40.1704 25.276 40.3757 25.9446 40.4539V41.2966C25.9447 41.8788 26.4169 42.3511 26.9994 42.3511Z" fill="#03010D"/>
<path d="M19.4464 12.4985C19.6418 13.0461 20.2446 13.3333 20.7943 13.1372C21.3428 12.9413 21.6287 12.3378 21.4329 11.7893L18.1923 2.71308C19.0068 3.32986 19.8695 4.18173 21.74 4.18173C23.4204 4.18173 24.3087 3.48173 25.0225 2.91927C25.6193 2.44909 26.0503 2.10938 26.9997 2.10938C27.9491 2.10938 28.3802 2.44909 28.977 2.91927C29.6908 3.48173 30.579 4.18173 32.2596 4.18173C33.9401 4.18173 34.8285 3.48173 35.5423 2.91927C35.6337 2.84713 35.7213 2.77826 35.8073 2.71308C35.169 4.50098 32.5853 11.7368 32.5636 11.7991C32.3023 12.5517 32.9485 13.3252 33.7464 13.1819L44.7188 11.2121C45.2921 11.1091 45.6734 10.5609 45.5706 9.98768C45.4676 9.41435 44.9189 9.03255 44.3461 9.13591L37.3144 10.3983L43.2024 5.51116C43.6506 5.13918 43.7123 4.4743 43.3403 4.02606C42.9682 3.57782 42.3033 3.51601 41.8551 3.88811L35.8472 8.87477L38.5127 1.40927C38.7573 0.723832 38.2487 0 37.5192 0C35.8386 0 34.9504 0.699996 34.2365 1.26246C33.6398 1.73264 33.2087 2.07236 32.2594 2.07236C31.3101 2.07236 30.879 1.73264 30.2823 1.26246C29.5686 0.699996 28.6804 0 26.9997 0C25.3191 0 24.4308 0.699996 23.7169 1.26246C23.1203 1.73264 22.6892 2.07236 21.7399 2.07236C20.7906 2.07236 20.3595 1.73264 19.7628 1.26246C19.0491 0.699996 18.1608 0 16.4803 0C15.7523 0 15.2417 0.722461 15.4871 1.40927L19.4464 12.4985Z" fill="#03010D"/>
<path d="M36.5973 16.1352C36.1532 15.7583 35.4876 15.8128 35.1108 16.2569C34.7338 16.7011 34.7883 17.3665 35.2325 17.7436C40.8069 22.4741 44.4768 29.9633 44.4768 38.1195C44.4769 49.0979 38.0063 51.8906 26.9997 51.8906C15.9883 51.8906 9.52246 49.101 9.52246 38.1196C9.52246 29.9468 13.2038 22.4624 18.7667 17.7438C19.2108 17.367 19.2656 16.7014 18.8887 16.2572C18.5119 15.8129 17.8464 15.7582 17.4021 16.1352C11.2221 21.3771 7.41309 29.5143 7.41309 38.1196C7.41309 50.4983 15.0649 54 26.9997 54C38.9531 54 46.5863 50.4978 46.5863 38.1196C46.5863 29.5344 42.7911 21.3913 36.5973 16.1352Z" fill="#03010D"/>
<path d="M17.3527 17.9943C15.3343 17.9943 13.6924 16.4455 13.6924 14.5418C13.6924 12.6379 15.3343 11.0892 17.3527 11.0892H36.7692C38.7874 11.0892 40.4294 12.638 40.4294 14.5418C40.4294 16.4456 38.7874 17.9943 36.7692 17.9943H17.3527Z" fill="#FF9F87"/>
</svg>
