<svg width="54" height="54" viewBox="0 0 54 54" fill="none" xmlns="http://www.w3.org/2000/svg">
<g clip-path="url(#clip0_55_314)">
<path fill-rule="evenodd" clip-rule="evenodd" d="M50.8359 40.2892H25.5234C24.3633 40.2892 23.4141 41.2384 23.4141 42.3986V46.6173C23.4141 47.7775 24.3633 48.7267 25.5234 48.7267H50.8359C51.9961 48.7267 52.9453 47.7775 52.9453 46.6173V42.3986C52.9453 41.2383 51.9962 40.2892 50.8359 40.2892Z" fill="#8A61FF"/>
<path fill-rule="evenodd" clip-rule="evenodd" d="M50.8359 5.27344H25.5234C24.3633 5.27344 23.4141 6.22266 23.4141 7.38281V11.6016C23.4141 12.7617 24.3633 13.7109 25.5234 13.7109H50.8359C51.9961 13.7109 52.9453 12.7617 52.9453 11.6016V7.38281C52.9453 6.22266 51.9962 5.27344 50.8359 5.27344Z" fill="#8A61FF"/>
<path fill-rule="evenodd" clip-rule="evenodd" d="M3.16406 22.7814H28.4766C29.6367 22.7814 30.5859 23.7306 30.5859 24.8907V29.1095C30.5859 30.2697 29.6367 31.2189 28.4766 31.2189H3.16406C2.00391 31.2189 1.05469 30.2697 1.05469 29.1095V24.8907C1.05469 23.7306 2.0038 22.7814 3.16406 22.7814Z" fill="#8A61FF"/>
<path d="M9.49219 35.0157C4.2582 35.0157 0 39.2739 0 44.5079C0.477246 57.0833 18.5091 57.0798 18.9844 44.5077C18.9844 39.2738 14.7262 35.0157 9.49219 35.0157ZM5.85932 50.9334V50.3213C5.85932 49.1585 6.4356 48.0529 7.38039 47.3715C8.56195 48.2364 10.4225 48.2363 11.6041 47.3715C12.5489 48.0529 13.1251 49.1585 13.1251 50.3213V50.9335C11.0106 52.1971 7.97365 52.197 5.85932 50.9334ZM11.1161 44.2946C11.0342 46.4463 7.94939 46.4449 7.86828 44.2946V42.9552C7.86828 42.0598 8.59676 41.3314 9.49208 41.3314C10.3874 41.3314 11.116 42.0599 11.116 42.9552L11.1161 44.2946ZM15.134 49.2647C14.8674 47.869 14.0825 46.5992 12.9367 45.7338C13.1225 45.2906 13.2254 44.8044 13.2254 44.2946V42.9552C13.0371 38.0082 5.94538 38.0119 5.7588 42.9552V44.2946C5.7588 44.8044 5.86164 45.2907 6.04747 45.7338C4.90177 46.5992 4.11676 47.869 3.85024 49.2646C-0.185519 44.5977 3.2631 37.0718 9.49229 37.1251C15.721 37.0716 19.1705 44.5991 15.134 49.2647Z" fill="#03010D"/>
<path d="M44.7716 43.4532H31.5881C30.1902 43.5051 30.1912 45.5113 31.5881 45.5626H44.7716C46.1695 45.5107 46.1685 43.5046 44.7716 43.4532Z" fill="white"/>
<path d="M44.5078 17.5079C39.2738 17.5079 35.0156 21.7661 35.0156 27.0001C35.4929 39.5755 53.5248 39.5721 54 27C54 21.766 49.7418 17.5079 44.5078 17.5079ZM40.875 33.4257V32.8136C40.875 31.6508 41.4513 30.5452 42.396 29.8638C43.5776 30.7287 45.4382 30.7285 46.6197 29.8638C47.5644 30.5452 48.1406 31.6509 48.1406 32.8136V33.4257C46.0262 34.6892 42.9894 34.6892 40.875 33.4257ZM46.1318 26.7868C46.05 28.9385 42.9651 28.9371 42.884 26.7868V25.4474C42.966 23.2956 46.0507 23.2973 46.1318 25.4474V26.7868ZM50.1497 31.757C49.883 30.3613 49.0981 29.0916 47.9524 28.2262C48.1383 27.783 48.2411 27.2967 48.2411 26.7869V25.4475C48.0528 20.5005 40.961 20.5042 40.7745 25.4475V26.7869C40.7745 27.2967 40.8774 27.783 41.0632 28.2261C39.9174 29.0915 39.1325 30.3613 38.866 31.757C34.8301 27.0901 38.2786 19.564 44.5079 19.6174C50.7366 19.5638 54.1861 27.0912 50.1497 31.757Z" fill="#03010D"/>
<path d="M22.4123 25.9454H9.22868C7.8308 25.9973 7.83185 28.0034 9.22868 28.0548H22.4123C23.8102 28.0029 23.8091 25.9968 22.4123 25.9454Z" fill="white"/>
<path d="M9.49219 18.9844C14.7262 18.9844 18.9844 14.7262 18.9844 9.49217C18.5072 -3.08329 0.475348 -3.07981 0 9.49227C0 14.7262 4.2582 18.9844 9.49219 18.9844ZM5.85932 15.9176V15.3055C5.85932 14.1427 6.4356 13.0372 7.38039 12.3557C8.56195 13.2206 10.4225 13.2205 11.6041 12.3557C12.5489 13.0372 13.1251 14.1427 13.1251 15.3055V15.9177C11.0106 17.1814 7.97365 17.1813 5.85932 15.9176ZM11.1161 9.2788C11.0342 11.4306 7.94939 11.4291 7.86828 9.2788V7.93946C7.86828 7.04403 8.59676 6.31566 9.49208 6.31566C10.3874 6.31566 11.116 7.04413 11.116 7.93946L11.1161 9.2788ZM9.49219 2.10935C15.7228 2.05651 19.1696 9.5835 15.134 14.249C14.8674 12.8534 14.0825 11.5835 12.9367 10.7181C13.1225 10.275 13.2254 9.78874 13.2254 9.27891V7.93946C13.0371 2.99244 5.94538 2.99614 5.7588 7.93946V9.2788C5.7588 9.78864 5.86164 10.275 6.04747 10.718C4.90177 11.5834 4.11676 12.8532 3.85024 14.2488C-0.186469 9.58171 3.26436 2.05578 9.49219 2.10935Z" fill="#03010D"/>
<path d="M31.5881 10.5469H44.7716C46.1695 10.495 46.1685 8.48886 44.7716 8.4375H31.5881C30.1902 8.48939 30.1912 10.4954 31.5881 10.5469Z" fill="white"/>
</g>
<defs>
<clipPath id="clip0_55_314">
<rect width="54" height="54" fill="white"/>
</clipPath>
</defs>
</svg>
