<svg width="54" height="54" viewBox="0 0 54 54" fill="none" xmlns="http://www.w3.org/2000/svg">
<path d="M27 38.1628C26.4176 38.1628 25.9453 37.6906 25.9453 37.1081V28.8984C25.9453 28.3159 26.4176 27.8438 27 27.8438C27.5824 27.8438 28.0547 28.3159 28.0547 28.8984V37.1082C28.0547 37.6906 27.5824 38.1628 27 38.1628Z" fill="#03010D"/>
<path d="M35.1977 26.5547C39.7277 22.0247 39.7277 14.6801 35.1977 10.1501C30.6677 5.6201 23.3231 5.62011 18.7931 10.1501C14.2631 14.6801 14.2631 22.0247 18.7931 26.5547C23.3231 31.0847 30.6677 31.0847 35.1977 26.5547Z" fill="#FFE485"/>
<path d="M45.3516 18.3516C45.3516 8.23247 37.1191 0 27 0C16.8809 0 8.64844 8.23247 8.64844 18.3516C8.64844 22.4068 9.94486 26.2507 12.3975 29.4677C15.7157 33.8199 16.8168 35.4503 17.1484 37.0834C16.4384 37.7567 15.9949 38.7083 15.9949 39.7616C15.9949 40.7935 16.4204 41.7279 17.1053 42.3983C16.4204 43.0689 15.9949 44.0031 15.9949 45.035C15.9949 46.9763 17.5011 48.5724 19.4062 48.7159V49.4858C19.4062 51.9749 21.4313 53.9999 23.9203 53.9999H30.607C33.0961 53.9999 35.1211 51.9749 35.1211 49.4858V48.6374C36.7695 48.2682 38.0051 46.7932 38.0051 45.035C38.0051 44.0031 37.5796 43.0688 36.8947 42.3983C37.5796 41.7278 38.0051 40.7935 38.0051 39.7616C38.0051 38.7083 37.5616 37.7567 36.8516 37.0834C37.1833 35.4503 38.2843 33.8198 41.6025 29.4677C44.0551 26.2507 45.3516 22.4068 45.3516 18.3516ZM30.607 51.8906H23.9203C22.5944 51.8906 21.5156 50.8119 21.5156 49.4859V48.7266H33.0117V49.4859C33.0117 50.8119 31.933 51.8906 30.607 51.8906ZM35.8958 45.0352C35.8958 45.9075 35.1861 46.6172 34.3137 46.6172H19.6863C18.8139 46.6172 18.1042 45.9075 18.1042 45.0352C18.1042 44.1628 18.8139 43.4531 19.6863 43.4531H34.3136C35.1861 43.4531 35.8958 44.1628 35.8958 45.0352ZM19.6863 41.3438C18.8139 41.3438 18.1042 40.6341 18.1042 39.7617C18.1042 38.8894 18.8139 38.1797 19.6863 38.1797H34.3136C35.186 38.1797 35.8957 38.8894 35.8957 39.7617C35.8957 40.6341 35.186 41.3438 34.3136 41.3438H19.6863ZM34.9144 36.1191C34.7188 36.087 34.5181 36.0702 34.3136 36.0702H19.6863C19.4818 36.0702 19.2812 36.087 19.0855 36.1191C18.544 34.1734 17.181 32.2628 14.0748 28.1887C11.9049 25.3425 10.7578 21.9408 10.7578 18.3516C10.7578 9.39558 18.044 2.10938 27 2.10938C35.956 2.10938 43.2422 9.39558 43.2422 18.3516C43.2422 21.9408 42.0951 25.3425 39.9251 28.1887C36.8189 32.2628 35.456 34.1734 34.9144 36.1191Z" fill="#03010D"/>
<path d="M32.7138 15.6156L29.7215 14.6182L27.8483 12.0805C27.6494 11.8112 27.3346 11.6522 26.9997 11.6522C26.6649 11.6522 26.3501 11.8112 26.1511 12.0805L24.278 14.6182L21.2857 15.6156C20.968 15.7214 20.7196 15.9718 20.616 16.2902C20.5127 16.6086 20.5665 16.9572 20.7612 17.2296L22.5958 19.7954L22.6197 22.9494C22.6223 23.2842 22.7836 23.5979 23.0545 23.7947C23.3252 23.9915 23.6736 24.0481 23.9927 23.9469L26.9997 22.9951L30.0068 23.947C30.111 23.98 30.2183 23.9962 30.3251 23.9962C30.5452 23.9962 30.7627 23.9273 30.9451 23.7947C31.216 23.5979 31.3773 23.2843 31.3799 22.9494L31.4038 19.7954L33.2384 17.2296C33.4331 16.9572 33.4869 16.6086 33.3836 16.2902C33.2799 15.9719 33.0314 15.7214 32.7138 15.6156ZM29.4937 18.8401C29.3673 19.0169 29.2985 19.2284 29.297 19.4456L29.2814 21.5048L27.3183 20.8833C27.2147 20.8505 27.1072 20.8341 26.9998 20.8341C26.8925 20.8341 26.7851 20.8505 26.6814 20.8833L24.7182 21.5048L24.7027 19.4456C24.701 19.2284 24.6324 19.0169 24.506 18.8401L23.3083 17.1651L25.2619 16.5139C25.468 16.4452 25.6479 16.3145 25.777 16.1397L26.9997 14.4829L28.2226 16.1396C28.3517 16.3144 28.5317 16.445 28.7378 16.5138L30.6914 17.165L29.4937 18.8401Z" fill="#03010D"/>
<path d="M8.21758 6.88878C8.55813 6.88878 8.89258 6.72404 9.09581 6.41934C9.41908 5.93482 9.2884 5.27996 8.80377 4.9567L4.9897 2.41205C4.50529 2.0889 3.85033 2.21936 3.52706 2.7041C3.2038 3.18862 3.33448 3.84348 3.81911 4.16684L7.63328 6.71149C7.8131 6.83141 8.01634 6.88878 8.21758 6.88878Z" fill="#03010D"/>
<path d="M9.31491 32.4916L5.89393 35.4959C5.45624 35.8802 5.41299 36.5466 5.79743 36.9843C6.00594 37.2217 6.29735 37.343 6.59034 37.343C6.83745 37.343 7.08562 37.2566 7.28591 37.0808L10.7069 34.0765C11.1446 33.6922 11.1878 33.0258 10.8034 32.5881C10.419 32.1503 9.7525 32.1073 9.31491 32.4916Z" fill="#03010D"/>
<path d="M50.4728 2.70402C50.1496 2.21929 49.4944 2.08872 49.0101 2.41198L45.1961 4.95662C44.7114 5.27989 44.5808 5.93474 44.904 6.41926C45.1073 6.72396 45.4417 6.88871 45.7823 6.88871C45.9834 6.88871 46.1868 6.83133 46.3667 6.7112L50.1807 4.16656C50.6654 3.8434 50.796 3.18855 50.4728 2.70402Z" fill="#03010D"/>
<path d="M48.1052 35.4961L44.6842 32.4918C44.2465 32.1073 43.58 32.1506 43.1959 32.5883C42.8114 33.026 42.8547 33.6924 43.2924 34.0767L46.7134 37.081C46.9135 37.2569 47.1618 37.3432 47.4089 37.3432C47.7018 37.3432 47.9933 37.2219 48.2018 36.9845C48.5862 36.5468 48.543 35.8804 48.1052 35.4961Z" fill="#03010D"/>
</svg>
