<svg width="54" height="54" viewBox="0 0 54 54" fill="none" xmlns="http://www.w3.org/2000/svg">
<g clip-path="url(#clip0_55_354)">
<path fill-rule="evenodd" clip-rule="evenodd" d="M8.54297 5.80078H45.4569V30.0585H8.54297V5.80078Z" fill="#7CEED0"/>
<path d="M50.2029 0H3.79687C3.21437 0 2.74219 0.472182 2.74219 1.05468V34.8046C2.74219 35.3871 3.21437 35.8592 3.79687 35.8592H50.2029C50.7854 35.8592 51.2576 35.3871 51.2576 34.8046V1.05468C51.2576 0.472182 50.7854 0 50.2029 0ZM49.1483 33.7499H4.85155V2.10937H49.1483V33.7499Z" fill="#03010D"/>
<path d="M23.0045 23.3483C23.4483 23.6046 23.9345 23.7327 24.4199 23.7327C24.9029 23.7327 25.385 23.6059 25.8237 23.3521L30.9441 20.397C31.8275 19.9158 32.3859 18.9892 32.4029 17.9744C32.4201 16.9419 31.8968 16.0162 31.0113 15.5029C29.8976 14.8433 28.7585 14.1927 27.6569 13.5634C27.0877 13.2383 26.5185 12.9131 25.9505 12.5856C25.042 12.0199 23.9642 11.9778 23.0629 12.474C22.1585 12.9719 21.5967 13.9189 21.5967 14.9455V20.9161C21.5957 21.9295 22.122 22.8388 23.0045 23.3483ZM23.7062 14.9456C23.7062 14.6376 23.8995 14.4215 24.0803 14.322C24.1625 14.2767 24.2704 14.2383 24.4 14.2383C24.5279 14.2383 24.6767 14.2757 24.8426 14.3807C24.8548 14.3885 24.8672 14.396 24.8798 14.4032C25.4558 14.7354 26.0333 15.0652 26.6108 15.3951C27.7053 16.0203 28.8371 16.6668 29.945 17.3229C30.266 17.509 30.2958 17.8159 30.2938 17.9392C30.2922 18.037 30.2613 18.3699 29.9312 18.5467C29.9215 18.5519 29.9118 18.5573 29.9023 18.5628L24.7682 21.5257C24.4517 21.7087 24.167 21.5838 24.0592 21.5216C23.9529 21.4602 23.7056 21.2786 23.7061 20.9172V14.9456H23.7062Z" fill="#03010D"/>
<path d="M45.4458 46.6607C46.1044 45.9936 46.5117 45.0777 46.5117 44.0685C46.5117 42.033 44.8557 40.3771 42.8203 40.3771C40.7848 40.3771 39.1289 42.033 39.1289 44.0685C39.1289 45.0777 39.5361 45.9936 40.1947 46.6607C39.1156 47.1548 38.1983 47.9435 37.5469 48.9235C36.8953 47.9436 35.9781 47.1548 34.899 46.6608C35.5576 45.9937 35.9648 45.0778 35.9648 44.0686C35.9648 42.0331 34.3089 40.3772 32.2734 40.3772C30.238 40.3772 28.582 42.0331 28.582 44.0686C28.582 45.0778 28.9893 45.9937 29.6479 46.6608C28.5688 47.1549 27.6515 47.9436 27 48.9236C26.3484 47.9437 25.4313 47.1549 24.3521 46.6608C25.0108 45.9937 25.418 45.0778 25.418 44.0686C25.418 42.0331 23.762 40.3772 21.7266 40.3772C19.6912 40.3772 18.0352 42.0331 18.0352 44.0686C18.0352 45.0778 18.4424 45.9937 19.1011 46.6608C18.0219 47.1549 17.1048 47.9436 16.4532 48.9236C15.8016 47.9437 14.8844 47.1549 13.8053 46.6608C14.4639 45.9937 14.8712 45.0778 14.8712 44.0686C14.8712 42.0331 13.2152 40.3772 11.1798 40.3772C9.14433 40.3772 7.48838 42.0331 7.48838 44.0686C7.48838 45.0778 7.89559 45.9937 8.55413 46.6608C6.37157 47.6601 4.85156 49.8649 4.85156 52.4182V52.9455C4.85156 53.528 5.32374 54.0002 5.90625 54.0002H48.0936C48.6761 54.0002 49.1483 53.528 49.1483 52.9455V52.4182C49.1484 49.8648 47.6285 47.6599 45.4458 46.6607ZM11.1798 42.4863C12.0521 42.4863 12.7618 43.196 12.7618 44.0684C12.7618 44.9407 12.0521 45.6504 11.1798 45.6504C10.3074 45.6504 9.59774 44.9407 9.59774 44.0684C9.59774 43.196 10.3074 42.4863 11.1798 42.4863ZM6.99383 51.8906C7.25424 49.8125 9.03222 48.1992 11.1798 48.1992C13.3273 48.1992 15.1053 49.8124 15.3657 51.8906H6.99383ZM21.7266 42.4863C22.5989 42.4863 23.3086 43.196 23.3086 44.0684C23.3086 44.9407 22.5989 45.6504 21.7266 45.6504C20.8543 45.6504 20.1446 44.9407 20.1446 44.0684C20.1446 43.196 20.8543 42.4863 21.7266 42.4863ZM17.5407 51.8906C17.8011 49.8125 19.5791 48.1992 21.7266 48.1992C23.8741 48.1992 25.6521 49.8124 25.9125 51.8906H17.5407ZM32.2734 42.4863C33.1458 42.4863 33.8555 43.196 33.8555 44.0684C33.8555 44.9407 33.1458 45.6504 32.2734 45.6504C31.4011 45.6504 30.6914 44.9407 30.6914 44.0684C30.6914 43.196 31.4011 42.4863 32.2734 42.4863ZM28.0875 51.8906C28.3479 49.8125 30.1259 48.1992 32.2734 48.1992C34.421 48.1992 36.199 49.8124 36.4594 51.8906H28.0875ZM42.8203 42.4863C43.6926 42.4863 44.4023 43.196 44.4023 44.0684C44.4023 44.9407 43.6926 45.6504 42.8203 45.6504C41.9479 45.6504 41.2382 44.9407 41.2382 44.0684C41.2382 43.196 41.9479 42.4863 42.8203 42.4863ZM38.6343 51.8906C38.8947 49.8125 40.6727 48.1992 42.8203 48.1992C44.9678 48.1992 46.7458 49.8124 47.0062 51.8906H38.6343Z" fill="#03010D"/>
</g>
<defs>
<clipPath id="clip0_55_354">
<rect width="54" height="54" fill="white"/>
</clipPath>
</defs>
</svg>
