<svg width="22" height="18" viewBox="0 0 22 18" fill="none" xmlns="http://www.w3.org/2000/svg">
<path d="M8 2.02649C6.42349 1.60306 3.65212 0.46017 2.16165 1.30124C0.612785 2.17525 0.612784 7.82476 2.16165 8.69877C3.65212 9.53984 6.42349 8.39689 8 7.97345" stroke="#8A61FF" stroke-width="1.5" stroke-linejoin="round"/>
<path d="M14 2.02649C15.5765 1.60306 18.3479 0.46017 19.8384 1.30124C21.3872 2.17525 21.3872 7.82476 19.8384 8.69877C18.3479 9.53984 15.5765 8.39689 14 7.97345" stroke="#8A61FF" stroke-width="1.5" stroke-linejoin="round"/>
<circle cx="11" cy="5" r="4" stroke="#8A61FF" stroke-width="1.5" stroke-linejoin="round"/>
<path d="M8.77244 8L7.34515 14.3753C7.01375 15.8555 6.84805 16.5957 7.18452 16.8368C8.33435 17.6607 9.75878 15.0976 11 15.0976C12.13 15.0976 13.817 17.5523 14.8155 16.8368C15.1519 16.5957 14.9862 15.8555 14.6548 14.3753L13.2276 8" stroke="#8A61FF" stroke-width="1.5" stroke-linejoin="round"/>
</svg>
