<svg width="65" height="64" viewBox="0 0 65 64" fill="none" xmlns="http://www.w3.org/2000/svg">
<path fill-rule="evenodd" clip-rule="evenodd" d="M32.3369 37.0514C40.5987 37.0514 47.3369 30.3131 47.3369 22.0514C46.5697 2.18173 18.1012 2.18711 17.3369 22.0516C17.3369 30.3131 24.0752 37.0514 32.3369 37.0514Z" fill="#FF9F87"/>
<path d="M38.9373 50.6027C46.1251 42.221 54.3885 31.392 54.3885 22.0513C54.3885 9.89221 44.4963 0 32.3373 0C20.1783 0 10.2861 9.89221 10.2861 22.0513C10.2861 31.392 18.5495 42.221 25.7373 50.6027C18.9175 51.3548 12.3374 53.3875 12.3374 57.125C12.3374 58.6121 13.4446 60.7173 18.72 62.2998C22.3746 63.3961 27.2108 64 32.3373 64C37.4638 64 42.3 63.3961 45.9546 62.2998C51.2299 60.7171 52.3372 58.6121 52.3372 57.125C52.3372 53.3874 45.7571 51.3548 38.9373 50.6027ZM32.3373 2.49999C43.1179 2.49999 51.8885 11.2707 51.8885 22.0513C51.8225 32.6535 39.9766 45.6462 32.3373 54.3529C24.6992 45.6488 12.8507 32.6512 12.7861 22.0513C12.7861 11.2707 21.5567 2.49999 32.3373 2.49999ZM45.2362 59.9053C38.5309 62.0155 26.1437 62.0155 19.4382 59.9051C15.7989 58.8134 14.8372 57.6091 14.8372 57.125C14.8372 56.0319 18.7407 53.6197 27.7509 52.9245C28.3652 53.6262 28.9638 54.3055 29.5403 54.9597C30.1933 55.7005 30.8149 56.406 31.3949 57.0713C31.6323 57.3436 31.9759 57.4999 32.3372 57.4999C32.6984 57.4999 33.042 57.3436 33.2794 57.0713C33.8594 56.406 34.481 55.7005 35.134 54.9597C35.7105 54.3055 36.3092 53.6263 36.9234 52.9245C45.9336 53.6197 49.8371 56.0319 49.8371 57.125C49.8372 57.6091 48.8757 58.8134 45.2362 59.9053Z" fill="#03010D"/>
<path d="M40.8995 27.239C40.8995 26.5486 40.3398 25.989 39.6495 25.989H39.0245V20.6966C39.5744 21.015 40.2867 20.8697 40.6649 20.343C41.0677 19.7822 40.9393 19.0012 40.3785 18.5985L33.066 13.3485C32.6305 13.0357 32.0435 13.0357 31.608 13.3485L24.2955 18.5985C23.7348 19.0011 23.6064 19.7821 24.0092 20.343C24.3873 20.8697 25.0997 21.015 25.6495 20.6966V25.989H25.0245C23.3705 26.0492 23.3665 28.4271 25.0245 28.489H39.6495C40.3398 28.489 40.8995 27.9293 40.8995 27.239ZM36.5245 25.989H28.1495V18.9091L32.337 15.9027L36.5245 18.9091V25.989Z" fill="#03010D"/>
</svg>
