<svg width="65" height="64" viewBox="0 0 65 64" fill="none" xmlns="http://www.w3.org/2000/svg">
<g clip-path="url(#clip0_43_2064)">
<path fill-rule="evenodd" clip-rule="evenodd" d="M16.7964 45.7991L30.4826 35.451C31.0384 35.0315 31.6902 34.8291 32.3367 34.8298C32.9832 34.8293 33.6351 35.0315 34.1908 35.451L48.2279 46.0642L48.3022 46.0081L49.8365 44.8481V44.3177V6.25012H14.8369V34.6926V44.3176L16.7964 45.7991Z" fill="#8A61FF"/>
<path d="M62.5065 27.5219L56.0867 22.6678V1.25C56.0867 0.559748 55.5269 0 54.8367 0H9.83688C9.1465 0 8.58688 0.559748 8.58688 1.25V22.6679L2.00966 27.6408C0.963162 28.4306 0.337789 29.6824 0.336914 30.99V59.799C0.336914 62.1155 2.22153 64 4.5379 64H60.1357C62.4522 64 64.3367 62.1155 64.3367 59.799V30.99C64.3365 29.6004 63.653 28.3066 62.5065 27.5219ZM61.8365 37.342V54.7867L50.3003 46.0643L61.8365 37.342ZM61.0244 29.5354C61.043 29.5495 61.0622 29.5631 61.0815 29.576C61.5543 29.8935 61.8365 30.4221 61.8365 30.99V34.2077L56.0866 38.5552V25.802L61.0244 29.5354ZM53.5866 2.49999V40.4455L48.2277 44.4972L34.9438 34.4535C34.1867 33.8819 33.286 33.5797 32.3408 33.5797H32.3342C31.3872 33.5797 30.4863 33.8819 29.7285 34.454L16.4454 44.4973L11.0865 40.4456V2.49999H53.5866ZM2.83678 37.3421L14.373 46.0644L2.83678 54.7869V37.3421ZM3.51653 29.6355L8.58676 25.802V38.5553L2.83678 34.2079V30.9909C2.83715 30.4554 3.08465 29.9615 3.51653 29.6355ZM60.1356 61.5H4.53777C3.59978 61.5 2.83678 60.737 2.83678 59.799V57.921L31.2358 36.4486C31.5555 36.2072 31.9353 36.0797 32.3362 36.0797H32.3389C32.7379 36.0797 33.1178 36.2074 33.4368 36.4481L61.8365 57.9208V59.7989C61.8365 60.7369 61.0735 61.5 60.1356 61.5Z" fill="#03010D"/>
<path d="M32.3366 29.29C33.1006 29.29 33.8626 29.1897 34.6011 28.992C35.2679 28.8134 35.6637 28.128 35.4852 27.4611C35.3064 26.7942 34.6213 26.3985 33.9543 26.577C30.0698 27.6719 26.0292 24.5826 26.0866 20.54C26.4306 12.2472 38.2449 12.2522 38.5866 20.5401C38.5866 21.2292 38.0258 21.7901 37.3366 21.7901C36.6473 21.7901 36.0866 21.2294 36.0866 20.5401C36.0866 18.4724 34.4043 16.7901 32.3366 16.7901C30.2688 16.7901 28.5866 18.4724 28.5866 20.5401C28.5753 23.7691 32.4718 25.4833 34.8366 23.3328C35.5004 23.9278 36.3769 24.2901 37.3366 24.2901C39.4043 24.2901 41.0866 22.6079 41.0866 20.5401C41.0866 15.7154 37.1613 11.7901 32.3366 11.7901C20.7291 12.2705 20.7314 28.8109 32.3366 29.29ZM32.3366 21.79C31.6473 21.79 31.0866 21.2292 31.0866 20.54C31.1552 18.8817 33.5181 18.8822 33.5866 20.54C33.5866 21.2292 33.0258 21.79 32.3366 21.79Z" fill="white"/>
</g>
<defs>
<clipPath id="clip0_43_2064">
<rect width="64" height="64" fill="white" transform="translate(0.336914)"/>
</clipPath>
</defs>
</svg>
