<svg width="65" height="64" viewBox="0 0 65 64" fill="none" xmlns="http://www.w3.org/2000/svg">
<g clip-path="url(#clip0_43_2078)">
<path d="M49.3155 55.3317C50.3981 56.4143 50.2731 58.2158 49.0392 59.1222C48.4441 59.5597 47.829 59.9573 47.1964 60.3136L35.25 48.3671L38.0066 46.7119C38.9955 46.1193 40.2594 46.2756 41.0745 47.0895L49.3155 55.3317Z" fill="#7CEED0"/>
<path d="M18.051 23.7691C18.9011 24.5955 19.0573 25.9044 18.426 26.907L16.6396 29.7449C3.24656 16.3631 4.79262 17.9078 4.6706 17.7859C5.0344 17.1421 5.4407 16.5145 5.88825 15.9082C6.78961 14.6868 8.56608 14.548 9.65371 15.6057L18.051 23.7691Z" fill="#7CEED0"/>
<path d="M36.1602 26.1406V31.2507C36.1602 33.9747 38.3682 36.1826 41.092 36.1826H49.8788L54.3174 41.4182L58.7546 36.1826C61.4786 36.1826 63.6865 33.9745 63.6865 31.2507V26.1406C63.6865 23.4166 61.4785 21.2087 58.7546 21.2087H41.092C38.3681 21.2087 36.1602 23.4168 36.1602 26.1406Z" fill="#7CEED0"/>
<path d="M41.9581 46.2048C40.7355 44.9838 38.8461 44.7515 37.3634 45.6401L33.2721 48.0963C31.938 48.8967 30.2376 48.6871 29.1373 47.587L17.3905 35.8388C16.2933 34.7427 16.0821 33.0492 16.8748 31.7165C18.6262 28.9357 18.1544 29.6841 19.4836 27.5731C20.4238 26.0798 20.1877 24.1029 18.9221 22.8726L10.525 14.7093C8.89468 13.1238 6.23249 13.336 4.8822 15.1655C-0.967635 23.0905 -0.166914 34.2453 6.86169 41.2725L23.7151 58.127C30.7151 65.1255 41.8443 65.9647 49.7795 60.1295C51.6274 58.7722 51.8255 56.073 50.1997 54.4476L41.9581 46.2048ZM48.299 58.1149C41.3725 63.208 31.6252 62.4998 25.4831 56.3591L8.62965 39.5047C2.48828 33.3644 1.76457 23.5982 6.89382 16.6506C7.346 16.0379 8.23598 15.9711 8.78192 16.502L17.1792 24.6655C17.6036 25.078 17.6827 25.7406 17.3677 26.2412L14.7514 30.3962C13.4049 32.5169 13.6074 35.5937 15.6227 37.6072L27.3692 49.355C29.282 51.2677 32.2381 51.6322 34.5585 50.2405L38.6495 47.7844C39.147 47.4864 39.7811 47.5643 40.1907 47.9734L48.4317 56.2158C48.9609 56.7449 48.9305 57.651 48.299 58.1149Z" fill="#03010D"/>
<path d="M21.66 17.445L25.7476 22.2681C26.2524 22.8634 27.1624 22.8491 27.6549 22.2682L31.719 17.4742H39.9267C43.3355 17.4742 46.1087 14.701 46.1087 11.2921V6.182C46.1087 2.77321 43.3353 0 39.9267 0H22.264C18.8552 0 16.082 2.77334 16.082 6.182V11.2921C16.082 14.4973 18.5335 17.1405 21.66 17.445ZM18.5823 6.182C18.5823 4.15188 20.2339 2.5003 22.264 2.5003H39.9267C41.9568 2.5003 43.6084 4.15188 43.6084 6.182V11.2921C43.6084 13.3222 41.9568 14.9739 39.9267 14.9739H31.14C30.7727 14.9739 30.424 15.1355 30.1864 15.4156L26.7014 19.5262L23.2178 15.4157C22.9802 15.1356 22.6314 14.9739 22.264 14.9739C20.2339 14.9739 18.5823 13.3222 18.5823 11.2921V6.182Z" fill="#03010D"/>
<path d="M22.3527 7.5213H39.9262C40.6165 7.5213 41.1763 6.96148 41.1763 6.27115C41.1763 5.58069 40.6165 5.021 39.9262 5.021H22.3527C21.6624 5.021 21.1025 5.58069 21.1025 6.27115C21.1025 6.96161 21.6622 7.5213 22.3527 7.5213Z" fill="#03010D"/>
<path d="M22.3527 12.5423H39.9262C40.6165 12.5423 41.1763 11.9825 41.1763 11.2921C41.1763 10.6018 40.6165 10.042 39.9262 10.042H22.3527C21.6624 10.042 21.1025 10.6018 21.1025 11.2921C21.1025 11.9826 21.6622 12.5423 22.3527 12.5423Z" fill="#03010D"/>
<path d="M39.8418 26.2296C39.8418 26.9201 40.4016 27.4798 41.0919 27.4798H58.6654C59.3558 27.4798 59.9156 26.9201 59.9156 26.2296C59.9156 25.5392 59.3558 24.9795 58.6654 24.9795H41.0919C40.4016 24.9795 39.8418 25.5393 39.8418 26.2296Z" fill="#03010D"/>
<path d="M58.6654 30.0006H41.0919C40.4016 30.0006 39.8418 30.5603 39.8418 31.2508C39.8418 31.9411 40.4016 32.5009 41.0919 32.5009H58.6654C59.3558 32.5009 59.9156 31.9411 59.9156 31.2508C59.9156 30.5603 59.3559 30.0006 58.6654 30.0006Z" fill="#03010D"/>
</g>
<defs>
<clipPath id="clip0_43_2078">
<rect width="64" height="64" fill="white" transform="translate(0.336914)"/>
</clipPath>
</defs>
</svg>
